<svg id="Слой_1" data-name="Слой 1" xmlns="http://www.w3.org/2000/svg" viewBox="0 0 207.81 244.87"><defs><style>.cls-1{fill:#fc2016;}.cls-2{fill:#feae00;}.cls-3{fill:#fefefe;}.cls-4{fill:#fefefd;}.cls-5{fill:#feae01;}.cls-6{fill:#fc2116;}</style></defs><title>logo</title><g id="f6a7lz.tif"><path class="cls-1" d="M109.57,7.07h5.05c9.26.79,17.07,4.74,24,10.74,11.85,10.23,20.09,23,26.68,37a152,152,0,0,1,10.86,32.21A145.09,145.09,0,0,1,178.74,103a100.41,100.41,0,0,1,.42,15.21c-.65,13.17-3.89,25.56-11.19,36.72a56.64,56.64,0,0,1-17.14,16.49,57.33,57.33,0,0,1-12.43,6.09,3,3,0,0,0-1.34.74c2.83-.22,5.53-.41,8.23-.63,7.42-.61,14.84-1.08,22.27-.3A38,38,0,0,1,184,182.49,28,28,0,0,1,194.32,194c7.68,15.42,13.45,31.57,18.41,48,.9,3,1.71,6,2.57,8.95a1.58,1.58,0,0,1,0,1,50.29,50.29,0,0,0-3.92-3.59,55.19,55.19,0,0,0-14.49-7.77,141.44,141.44,0,0,0-24.52-6.71c-5.36-1-10.75-1.91-16.18-2.54-3.88-.46-7.78-.8-11.69-1.06-4.79-.32-9.58-.44-14.37-.58-6-.17-12,.08-18,.31-4.23.16-8.46.44-12.68.79q-7.7.63-15.36,1.57-6.66.81-13.28,1.76c-4.15.61-8.28,1.27-12.43,1.81-5.88.76-11.79,1.23-17.68.3-8.35-1.3-14.3-5.88-17.89-13.54A103.51,103.51,0,0,1,17.5,207.1c-3-10.53-5.29-21.25-7.29-32-1-5.37-1.86-10.76-2.61-16.25A4.1,4.1,0,0,1,8.86,160a44.11,44.11,0,0,0,14.49,10.81,84.12,84.12,0,0,0,19.86,6.42c11.91,2.47,24,3.09,36.11,2.9,4.55-.08,9.11-.24,13.87-.57a23,23,0,0,0-4.28-1.15,56.67,56.67,0,0,1-23.4-12,59,59,0,0,1-16.84-25.06,77.71,77.71,0,0,1-4-17.32,92.84,92.84,0,0,1-.13-20.34A150.56,150.56,0,0,1,56.13,59.2a127.5,127.5,0,0,1,16.3-28.33c4.67-6,9.72-11.67,16.06-16a44.3,44.3,0,0,1,18.58-7.5C107.9,7.23,108.73,7.16,109.57,7.07Z" transform="translate(-7.6 -7.07)"/><path class="cls-2" d="M208,240.6a9.35,9.35,0,0,1-2.2-1.38c-4.47-2.69-9.39-4.14-14.41-5.33a122,122,0,0,0-13.16-2.33c-3.47-.45-7-.77-10.46-1.07-4.49-.39-9-.59-13.49-.87-3.15-.19-6.31-.27-9.47-.28-9.32,0-18.64-.06-28,0-5.91,0-11.82.25-17.72.48-4,.16-8,.33-12,.47-5.23.19-10.45.44-15.67.72-5.66.31-11.32.58-17,.75-2,.06-3.91.2-5.87.15a21,21,0,0,1-15.69-7.55c-4.22-4.74-6.88-10.34-9-16.21a164.17,164.17,0,0,1-6.45-24.57c-.76-3.75-1.54-7.48-2.32-11.22a1.19,1.19,0,0,1,0-.79c.87.77,1.68,1.58,2.58,2.28,4,3.08,8.64,4.75,13.47,6a91.07,91.07,0,0,0,14.14,2.23,174.83,174.83,0,0,0,20.6.38c5.86-.15,11.72-.57,17.57-.94,4.22-.27,8.44-.53,12.67-.71,3.11-.14,6.21-.36,9.32-.57a70.12,70.12,0,0,1-9.55-1.55,56.26,56.26,0,0,1-20.36-9.22,55.67,55.67,0,0,1-17-20A69.87,69.87,0,0,1,52,129.83a89.83,89.83,0,0,1-1.38-19.78,127.07,127.07,0,0,1,1.76-16.26A156.5,156.5,0,0,1,58.26,70.3,147.85,147.85,0,0,1,69.45,44.93a116.23,116.23,0,0,1,9.16-14C83.87,24,89.75,17.82,97.23,13.31c4.47-2.69,9.26-4.52,14.55-4.5a24.73,24.73,0,0,1,9.94,2.32,46.54,46.54,0,0,1,11.77,7.73C141.64,26,147.85,34.69,153.2,44a147.45,147.45,0,0,1,12.35,28.24,149.76,149.76,0,0,1,4.9,19.32,119.41,119.41,0,0,1,1.82,13.73c.22,3.39.49,6.77.38,10.17-.36,11.76-2.49,23.12-7.89,33.71a56.67,56.67,0,0,1-10.85,15,55.38,55.38,0,0,1-27.83,14.78,22.2,22.2,0,0,0-2.57.73h1.15c4.32,0,8.64-.08,13,0,4.91.09,9.82.2,14.72.5a94.1,94.1,0,0,1,19.6,2.83c5.33,1.5,10.28,3.73,14.19,7.82a27.3,27.3,0,0,1,5.42,8.82q8.07,20,16.15,39.94a1.8,1.8,0,0,1,.28,1Z" transform="translate(-7.6 -7.07)"/><path class="cls-2" d="M208,240.6l.11.12s-.07,0-.08,0a.23.23,0,0,1,0-.1Z" transform="translate(-7.6 -7.07)"/><path class="cls-1" d="M171.24,202.74a10.63,10.63,0,0,0-3.44,3.95,7.18,7.18,0,0,0-.72,3.57c.16,3.27,3.28,4.58,6,4.09a6.52,6.52,0,0,0,1.25-.41,2.62,2.62,0,0,0,1.68-3.49c-1.64-5-3.25-9.93-5.08-14.82-1.17-3.13-3.7-5-6.78-6.18-.46-.18-1-.19-1.42-.65a2.81,2.81,0,0,1,.59-.21c3.51-.28,7-.45,10.42.69a10.13,10.13,0,0,1,6.68,6.38q3.72,10.31,7.38,20.61c.76,2.1,1.49,4.2,2.23,6.31.07.21.27.42.05.7-.66-.35-1.3-.73-2-1.05a6.13,6.13,0,0,0-5.21-.13A32,32,0,0,1,168,224.74c-4.85-.28-10.13-3.82-10.88-9.43a10.26,10.26,0,0,1,2.86-8.24,12.42,12.42,0,0,1,9.21-4.17C169.9,202.86,170.57,202.79,171.24,202.74Z" transform="translate(-7.6 -7.07)"/><path class="cls-1" d="M87.66,223.46a8.43,8.43,0,0,0-5.28-1.85,5.88,5.88,0,0,0-2.08.5,32.23,32.23,0,0,1-14.82,2.63c-4.37-.2-9.69-3.59-10.7-8.66a10.28,10.28,0,0,1,2.42-8.69c2.36-3,5.61-4.21,9.29-4.48.7-.06,1.4-.08,2.31-.13a19.36,19.36,0,0,0-2.17,1.9,7.19,7.19,0,0,0-2.07,6,4.76,4.76,0,0,0,6,3.64c2.07-.5,3.77-1.73,2.63-4.77-1.49-4-2.86-8-4.12-12.11a11.83,11.83,0,0,0-8.24-8.26c-.26-.08-.51-.21-.81-.33.14-.09.23-.19.33-.2,4.11-.46,8.21-.62,12.1,1.12a10.45,10.45,0,0,1,5.63,6.38l9.6,26.92A1.5,1.5,0,0,1,87.66,223.46Z" transform="translate(-7.6 -7.07)"/><path class="cls-3" d="M90.54,143.81c-.77.78-1.34,1.44-2,2-1.71,1.45-3.61,2.58-6,2.27-2.59-.34-4.18-2-5.21-4.28a14.54,14.54,0,0,1-1-8.16c-.48.09-.68.49-1,.75a5.4,5.4,0,0,1-5.56,1.23,4.5,4.5,0,0,1-3.19-3.85A17,17,0,0,1,67.73,125a10,10,0,0,1,1-2,3.68,3.68,0,0,1,.29,1.87,14.71,14.71,0,0,0,.94,4.3c1.21,3.06,3.37,4.47,6.62,4.16.86-.09,1,.16,1.2.92a14.5,14.5,0,0,0,2.15,5.39c2.51,3.68,6.27,4.4,10,1.88.45-.31.89-.65,1.4-1a27.63,27.63,0,0,0,2.86,4.61c1.57,1.86,3.35,3.32,6,3.18a7.49,7.49,0,0,0,4.55-2.16,18.21,18.21,0,0,0,3.43-4.15c.59.78,1.11,1.51,1.68,2.2a11.81,11.81,0,0,0,3.66,3.23,6.07,6.07,0,0,0,7.2-.93,14.92,14.92,0,0,0,3.79-5.61c.14-.32.26-.65.4-1,.49,0,.63.48.89.75,2.07,2.26,4.47,3.84,7.67,3.87a9.83,9.83,0,0,0,9-6.7c0-.11.05-.23.09-.35.39-1.11.39-1.12,1.41-.6a14.52,14.52,0,0,0,3.22,1.25c3.53.88,5.81-.73,6.38-4.34a24.51,24.51,0,0,0-.45-7.82,14.56,14.56,0,0,1,2.17,3.66c1.48,3.5,2.26,7.07,1,10.81-1.2,3.45-4,4.58-7.23,3a15.06,15.06,0,0,1-4-3c-.27-.26-.43-.67-1-.73a19.51,19.51,0,0,1-.6,4.11,12.49,12.49,0,0,1-1.91,4.1,7.16,7.16,0,0,1-10,2,16.7,16.7,0,0,1-4.76-4.49c-.33-.44-.65-.9-1.13-1.56a25.22,25.22,0,0,1-.6,4,9.06,9.06,0,0,1-3.5,5.14c-2.74,1.86-6.64,1.36-9.36-1.14a14.58,14.58,0,0,1-3.82-6.2c-2.12,6.3-5.24,9-9.63,8.38C94,153.3,91,149.64,90.54,143.81Z" transform="translate(-7.6 -7.07)"/><path class="cls-3" d="M81.72,151.76a14.59,14.59,0,0,1-2.31,2.63c-3.09,2.5-6.39,1.64-7.85-2.07a13.88,13.88,0,0,1-.51-7.66,1.47,1.47,0,0,0,0-1,26,26,0,0,1-2.23,2,7.59,7.59,0,0,1-2.08,1.16,2.31,2.31,0,0,1-3.23-1.54,9.12,9.12,0,0,1-.25-3.68,16.11,16.11,0,0,1,1.87-5.83c-.11,1.26-.18,2.34-.31,3.41a8.21,8.21,0,0,0,.09,2.27A1.7,1.7,0,0,0,67.24,143a11.75,11.75,0,0,0,3.65-1.72,5.92,5.92,0,0,1,1.63-.94,22.16,22.16,0,0,0,.59,5,10.51,10.51,0,0,0,1,2.53,4.39,4.39,0,0,0,5.87,2,11.46,11.46,0,0,0,2.32-1.35c.46,1.07.86,2.09,1.32,3.09a14.06,14.06,0,0,0,2.77,4.17,7.45,7.45,0,0,0,10.73.29c.62-.56,1.25-1.11,1.89-1.66a22.18,22.18,0,0,0,2,3.05c3.43,3.83,7.59,4.57,12.18,2.15a12.75,12.75,0,0,0,5.32-5c.45,0,.61.4.85.65,5.16,5.29,12.18,4.85,16.64-1.06a23.31,23.31,0,0,0,1.88-2.91c6.81,5.27,12.78,3.57,14.87-5.46,2,3.46,1.79,8.29-.48,10.91a6.5,6.5,0,0,1-7.16,2,13.49,13.49,0,0,1-5.25-3,3.11,3.11,0,0,0-1.06-.84c-.81,5.37-3.38,9.19-9.06,10.15-3.84.66-7.1-1.36-10.81-6.59-1.78,4.9-5,8-10.41,8.06-4.27,0-7-2.21-10-7.94-.5.6-1,1.19-1.46,1.75a10,10,0,0,1-5.92,3.58c-3.52.49-6.42-1.41-8.07-5.07A19.39,19.39,0,0,1,81.72,151.76Z" transform="translate(-7.6 -7.07)"/><path class="cls-3" d="M97.82,99.3c-.56.66-1,1.27-1.55,1.79-1.7,1.63-3.63,2.43-6,1.53s-3.27-2.9-3.49-5.25c-.32-3.35.85-6.35,2.3-9.28,1.06-2.15,2.19-4.25,3.06-6.49a26.09,26.09,0,0,0,1.45-6.15,17.13,17.13,0,0,1-.22,8c-.61,2.73-1.6,5.34-2.43,8a13.8,13.8,0,0,0-.86,4.68,2.69,2.69,0,0,0,4,2.38,5.94,5.94,0,0,0,2.1-1.92,20.45,20.45,0,0,0,2.58-5.11,5.45,5.45,0,0,1,.65-1.59c.13,2-.13,3.93.28,5.85.49,2.26,1.58,3.42,3.63,3.72a4.45,4.45,0,0,0,4.83-2.56,17.74,17.74,0,0,0,1.4-5.78c0-.19,0-.39.11-.83A58.54,58.54,0,0,0,111,96.09a10.2,10.2,0,0,0,1.18,2.47,4.06,4.06,0,0,0,4.57,1.84c1.81-.43,2.57-1.73,2.87-3.43a29.86,29.86,0,0,0,.18-6.94,121.92,121.92,0,0,0-3.78-23.71c-1.9-7.31-4.26-14.45-8.22-20.95-2.22-3.64-4.88-6.88-8.73-8.95a13.28,13.28,0,0,1,5,2.58c4.28,3.3,7.14,7.7,9.5,12.46a98.51,98.51,0,0,1,7.2,21.35c1.31,5.59,2.29,11.25,3.06,16.94a23.31,23.31,0,0,1-.39,10,7.54,7.54,0,0,1-10.77,4.55,8.87,8.87,0,0,1-3-3.72c-1.46,2.57-3.48,3.84-6.41,3.59S98.88,101.84,97.82,99.3Z" transform="translate(-7.6 -7.07)"/><path class="cls-1" d="M34.5,186.85a11.86,11.86,0,0,0,5.75,1.45c3.48.25,7,.13,10.43.2,4.88.09,8,2.69,9.09,7.41.19.84,0,1.05-.83,1-4.67,0-9.35,0-14,0-1.3,0-1.3,0-1.31,1.3q0,12,0,24c0,1.52-.15,1.63-1.55.94-3.4-1.67-5.28-4.63-6.66-8a16.91,16.91,0,0,1-1.11-6.44c-.06-7,0-14,0-21A1,1,0,0,1,34.5,186.85Z" transform="translate(-7.6 -7.07)"/><path class="cls-3" d="M154.7,123.64c5-5.22,6.54-11.76,7.38-18.58a5.18,5.18,0,0,0-.37-2.58,1.6,1.6,0,0,0-2.76-.7,5.92,5.92,0,0,0-1.41,2.06,17.7,17.7,0,0,1-5.14,5.74,2,2,0,0,1,.3-1.26c1.47-3.69,2.65-7.44,2.54-11.48a7.17,7.17,0,0,0-.62-3.14c-.38-.73-.89-1.42-1.8-1.39a1.94,1.94,0,0,0-1.65,1.4c-.67,1.66-1.21,3.37-1.87,5a17.46,17.46,0,0,1-3,5.15,2.54,2.54,0,0,1-.95.84c.34-1.72.85-3.35,1-5a8.12,8.12,0,0,0-.08-3.22,2.52,2.52,0,0,0-.69-1.22c-.71-.69-1.35-.65-1.9.16-.44.66-.79,1.38-1.19,2.07a10.49,10.49,0,0,1-2.8,3.28,31.07,31.07,0,0,0,1.76-4.73c.6-2.29.54-4.67.94-7,0-.08,0-.17,0-.24.24-1.3.57-2.62,2-3s2.4.56,3.14,1.7a2.26,2.26,0,0,0,.27.29,18,18,0,0,1,2.21-4.38,6.58,6.58,0,0,1,1.71-1.66,3.2,3.2,0,0,1,4.17.37c1.65,1.5,2.25,3.53,2.78,5.59a23.75,23.75,0,0,1,.6,4.37A5.59,5.59,0,0,0,160.71,91c1.72-1.46,3.3-1.23,4.53.65a11.63,11.63,0,0,1,1.65,5.44,30.34,30.34,0,0,1-4.26,19.28,20.56,20.56,0,0,1-7.36,7.23A.54.54,0,0,1,154.7,123.64Z" transform="translate(-7.6 -7.07)"/><path class="cls-1" d="M124,206v-16.2c0-1.31.08-1.36,1.35-1.15a17.18,17.18,0,0,1,4,1.09c2.12.91,4.23,2.87,4,5.92-.12,1.63,0,3.28,0,4.92,0,1.36,0,1.44,1.34,1.37,4.3-.26,8,3.35,9,6.6,0,.12.1.22.13.34.42,1.48.42,1.48-1.17,1.48-2.76,0-5.52,0-8.28,0-.83,0-1.09.22-1.08,1.07,0,3.68,0,7.36,0,11,0,.86-.17,1.2-1.11,1.17-2.36-.07-4.72-.06-7.08,0-.94,0-1.21-.24-1.2-1.2C124,216.93,124,211.45,124,206Z" transform="translate(-7.6 -7.07)"/><path class="cls-1" d="M89.65,206q0-8.16,0-16.31c0-1.21.1-1.27,1.31-1.08a14.12,14.12,0,0,1,5.08,1.65,5.46,5.46,0,0,1,3,5c0,1.84,0,3.68,0,5.52,0,.84.15,1.25,1.11,1.17,4.44-.34,8,3.08,9.24,6.48a8,8,0,0,1,.23.8c.17.79,0,1.16-1,1.14-2.71-.05-5.43,0-8.15,0-1.45,0-1.45,0-1.45,1.39,0,3.56,0,7.11,0,10.67,0,1-.28,1.22-1.21,1.2-2.32-.06-4.64,0-7,0-1.2,0-1.2,0-1.21-1.27Z" transform="translate(-7.6 -7.07)"/><path class="cls-3" d="M99.37,133.39a12.7,12.7,0,0,1-1.67,3.5c-2.76,3.86-7.45,4.05-10.44.35-1.81-2.25-2.4-4.94-2.6-8.05,2,2.83,4.07,5.21,7.52,5.29s5.7-1.95,7.62-4.61a37.86,37.86,0,0,0,3,3.36,10.69,10.69,0,0,0,2.29,1.73,4.59,4.59,0,0,0,5.91-.76,17.65,17.65,0,0,0,3.21-4.59c.58-1.06.58-1,1.44-.25a15.89,15.89,0,0,0,5.33,3.56,5.78,5.78,0,0,0,6.47-1.5,17.29,17.29,0,0,0,3.49-5.94c.2-.5.41-1,.68-1.68a13.1,13.1,0,0,0,2.61,3.42c2.24,1.93,4.77,3.09,7.79,2.59a5.53,5.53,0,0,0,4.77-4.85c.05-.3,0-.66.38-.91a12.93,12.93,0,0,1-.11,6.71c-1.66,5.27-6.87,6.61-10.91,2.83a17.49,17.49,0,0,1-3.52-4.8,3.4,3.4,0,0,0-.69-1.19,31,31,0,0,1-1,5.16,14.08,14.08,0,0,1-1.27,2.83c-2.53,4.07-7.28,4.78-11,1.66a12.12,12.12,0,0,1-2-2.07,14.14,14.14,0,0,1-1.46-2.55c-.23,1-.38,2-.63,2.81a8.07,8.07,0,0,1-3.49,4.84,6.53,6.53,0,0,1-8-1.07,12.86,12.86,0,0,1-3.09-4.64A2.65,2.65,0,0,0,99.37,133.39Z" transform="translate(-7.6 -7.07)"/><path class="cls-3" d="M79.32,97.92a66.24,66.24,0,0,0-.68,9.72,31.64,31.64,0,0,0,3.37,13,6.84,6.84,0,0,0,2.29,2.58c1.51,1.06,2.93.43,3.19-1.42a7.58,7.58,0,0,0-.6-4A51.57,51.57,0,0,1,84,109.31c-1.16-5.15-1.47-10.26.57-15.29.08-.22.19-.42.29-.64.32.09.2.33.19.48-.34,5,.89,9.73,2.55,14.37,1.47,4.12,3.17,8.16,4.5,12.33a5.68,5.68,0,0,1-6.47,7.49,6,6,0,0,1-3.13-1.75,17.86,17.86,0,0,1-.14,2c-.57,2.77-3.19,4.24-6.1,3.41a5.61,5.61,0,0,1-3.78-3.07c-3.58-7.94-4.06-15.91-.06-23.87.14-.28.32-.55.62-1.06-.18,1-.29,1.83-.48,2.59a15.93,15.93,0,0,0-.28,2.38,33.89,33.89,0,0,0,2,14.93,7.09,7.09,0,0,0,1.09,2,1.65,1.65,0,0,0,1.67.72c.73-.15,1-.72,1.18-1.36a4.17,4.17,0,0,0-.18-2.35,56.41,56.41,0,0,1-1.94-11.9,21.71,21.71,0,0,1,2.17-11.37A5.12,5.12,0,0,1,79.32,97.92Z" transform="translate(-7.6 -7.07)"/><path class="cls-1" d="M144.9,206.05c0-5.43,0-10.87,0-16.3,0-1.3.07-1.32,1.38-1.12a12.65,12.65,0,0,1,5.79,2.08,4.85,4.85,0,0,1,2.17,4q0,13.92,0,27.82c0,.78-.23,1-1,1-2.44,0-4.88,0-7.31,0-.9,0-1.05-.34-1.05-1.13C144.91,217,144.9,211.53,144.9,206.05Z" transform="translate(-7.6 -7.07)"/><path class="cls-1" d="M110.57,206c0-5.43,0-10.87,0-16.31,0-1.24.09-1.31,1.27-1.13a13.77,13.77,0,0,1,5.61,1.91,5.1,5.1,0,0,1,2.47,4.5q0,13.74,0,27.47c0,.92-.28,1.15-1.16,1.13-2.32-.06-4.64,0-7,0-1.25,0-1.25,0-1.25-1.24C110.56,216.92,110.57,211.48,110.57,206Z" transform="translate(-7.6 -7.07)"/><path class="cls-3" d="M143.21,106a25.3,25.3,0,0,1,8.66,5.41,10.11,10.11,0,0,1,2.85,5,5,5,0,0,1-1.68,5.29c-1.69,1.37-3.57,1.14-5.42.26-.5-.24-1-.56-1.51-.87-.1.4-.2.77-.29,1.15a3.91,3.91,0,0,1-5,3.21A19.77,19.77,0,0,1,128,115.71a25.71,25.71,0,0,1-2.87-13.29,37.57,37.57,0,0,1,1.43-9.37,41.48,41.48,0,0,1,.56,5c.63,5,1.61,9.83,4.09,14.27a20,20,0,0,0,4.56,5.51,5.91,5.91,0,0,0,4.13,1.63c.61,0,1.25-.09,1.56-.69s-.06-1.16-.46-1.62a40,40,0,0,1-4-5.07,17.46,17.46,0,0,1-2.37-11.72,1,1,0,0,1,.31-.67,26.25,26.25,0,0,0,8.29,13.71,19.93,19.93,0,0,0,5.62,3.61c.54.21,1.15.53,1.68,0s.22-1.21,0-1.79a15.08,15.08,0,0,0-3.43-5C145.63,108.72,144.25,107.16,143.21,106Z" transform="translate(-7.6 -7.07)"/><path class="cls-3" d="M120.79,116.28a16.92,16.92,0,0,0,2.23,4.1c1.15,1.46,2.5,2.56,4.54,2.44a5.77,5.77,0,0,0,2.91-1.3,5.82,5.82,0,0,1-2,5,3.53,3.53,0,0,1-4.8-.25,9.45,9.45,0,0,1-2.6-4.62,4.62,4.62,0,0,0-.41-1.18,14.53,14.53,0,0,1-2.07,5.46,4.92,4.92,0,0,1-7.92.71,8.35,8.35,0,0,1-2.43-5.15c-.42,1-.75,1.92-1.14,2.78a10.27,10.27,0,0,1-2.23,3.23,6,6,0,0,1-9-.42,10.56,10.56,0,0,1-2.4-6.5,9.9,9.9,0,0,1,.3-4,28.36,28.36,0,0,0,2.27,3.28c.36.37.69.78,1.07,1.13a5.62,5.62,0,0,0,7.43.71,13,13,0,0,0,3.5-3.23c.41-.54.67-.52,1.07,0a12.07,12.07,0,0,0,3.25,3.16c2.17,1.35,3.91,1.13,5.68-.73a11.26,11.26,0,0,0,2-3.21C120.33,117.25,120.52,116.84,120.79,116.28Z" transform="translate(-7.6 -7.07)"/><path class="cls-3" d="M90.2,103.69c.47,1,.86,1.85,1.28,2.7A8.36,8.36,0,0,0,93.4,109a4.14,4.14,0,0,0,5.18.47c1.59-1,2.43-1.89,4.2-4.68.44.08.44.51.59.8a14.71,14.71,0,0,0,2.87,4,4.63,4.63,0,0,0,6.12.54,9.63,9.63,0,0,0,2.06-1.81c.61-.68,1.16-1.42,1.77-2.18.47.46.53,1.12.82,1.66a9.64,9.64,0,0,0,1.72,2.57,2.59,2.59,0,0,0,3.65.4c.59-.38,1.12-.87,1.86-1.46-.26,2.31-.7,4.32-2.24,5.9a2.34,2.34,0,0,1-3.43,0,9.57,9.57,0,0,1-2.27-3.34c-.19-.38-.22-.85-.64-1.17a13.45,13.45,0,0,1-2.21,4.45c-2.57,3.19-6,3.12-8.37-.2a18.4,18.4,0,0,1-2.33-5.29c-.32.87-.54,1.69-.9,2.43-1.25,2.49-3.11,4.16-6.07,4.06a6.2,6.2,0,0,1-5.79-4.3A11.26,11.26,0,0,1,90.2,103.69Z" transform="translate(-7.6 -7.07)"/><path class="cls-1" d="M79.45,41.78a1.72,1.72,0,0,0-.3-.19c-.93-.37-1.86-.86-1.89-1.94s.9-1.8,1.88-2.26a13.15,13.15,0,0,1,5.85-.9c.55,0,.79-.07.94-.58a2.08,2.08,0,0,1,1.89-1.6,8.36,8.36,0,0,1,5.44.71,26.28,26.28,0,0,0-5.87,4.65,19.74,19.74,0,0,0-3.6,5.62c-.64,1.53-1.3,3.17.14,4.68.26.27,0,.43-.15.59a5.23,5.23,0,0,1-1.94,1.38c-1.29.54-2.34.05-2.42-1.31-.06-1-.49-1.07-1.27-1.07-1.48,0-2.88-.43-3.49-1.86s.15-2.65,1.07-3.71A6.94,6.94,0,0,1,79.45,41.78Z" transform="translate(-7.6 -7.07)"/><path class="cls-1" d="M99,53.53c.15,3.21-.68,4.37-3.88,5.48a12.62,12.62,0,0,1,2.24,9.93,6.21,6.21,0,0,1-1.16,2.73c-1.37,1.84-4.26,1.93-6.16.22a8.41,8.41,0,0,1-2-9.45,14.73,14.73,0,0,1,3.46-5.12,1,1,0,0,1,.84-.34c2.8.23,4.81-1.08,6.33-3.31C98.72,53.62,98.81,53.6,99,53.53Z" transform="translate(-7.6 -7.07)"/><path class="cls-3" d="M109.92,63a19.44,19.44,0,0,1,2.52,5.5,140.81,140.81,0,0,1,5,22.22,12.15,12.15,0,0,1,.09,4.17c-.27,1.33-.85,2-2,2.06s-1.92-.45-2.2-1.87a57.19,57.19,0,0,1-.43-6.68c-.31-4.34-.65-8.67-1.12-13A121.8,121.8,0,0,0,109.92,63Z" transform="translate(-7.6 -7.07)"/><path class="cls-3" d="M104.31,71.17a28.2,28.2,0,0,1,1.89,6.59,58.54,58.54,0,0,1,.72,14.66,8.59,8.59,0,0,1-.64,2.91,2.23,2.23,0,0,1-2.46,1.46,2,2,0,0,1-1.69-2.15,20.28,20.28,0,0,1,.77-6.15,56.88,56.88,0,0,0,1.41-16.85C104.3,71.48,104.31,71.33,104.31,71.17Z" transform="translate(-7.6 -7.07)"/><path class="cls-4" d="M91.25,55.36a4.34,4.34,0,0,1-4.42-2.54,5,5,0,0,1,.6-5.41,10.24,10.24,0,0,1,5.25-3.57c2.59-.77,4.37.38,4.61,3.08a8.52,8.52,0,0,1-2.72,7.22A4.28,4.28,0,0,1,91.25,55.36Z" transform="translate(-7.6 -7.07)"/><path class="cls-1" d="M80.94,64.4c.21-4.74.38-9.32,3.22-13.58.88,3.08,2.33,5.34,5.43,6C88.69,58.63,83.66,63.05,80.94,64.4Z" transform="translate(-7.6 -7.07)"/><path class="cls-4" d="M97.55,76.43c1.34,5.61.43,11-1.5,16.23-.3.82-.55,1.66-.91,2.46a1.38,1.38,0,0,1-1.83.9A1.61,1.61,0,0,1,92,94.16a6.35,6.35,0,0,1,.86-2.46A40.66,40.66,0,0,0,97,80.41C97.21,79.09,97.36,77.76,97.55,76.43Z" transform="translate(-7.6 -7.07)"/><path class="cls-5" d="M88.12,51.32A5.53,5.53,0,0,1,92,45.89a2.23,2.23,0,0,1,2.75,1.48c1,2.64-1.34,6.37-4.15,6.7a2.13,2.13,0,0,1-2.3-1.66A8.6,8.6,0,0,1,88.12,51.32Z" transform="translate(-7.6 -7.07)"/><path class="cls-6" d="M92,47.16a2.16,2.16,0,0,1,.07,4.32,2,2,0,0,1-2-2.07A2,2,0,0,1,92,47.16Z" transform="translate(-7.6 -7.07)"/></g></svg>